<?xml version="1.0" encoding="UTF-8" standalone="no"?>
<svg
   xmlns:dc="http://purl.org/dc/elements/1.1/"
   xmlns:cc="http://creativecommons.org/ns#"
   xmlns:rdf="http://www.w3.org/1999/02/22-rdf-syntax-ns#"
   xmlns:svg="http://www.w3.org/2000/svg"
   xmlns="http://www.w3.org/2000/svg"
   xmlns:sodipodi="http://sodipodi.sourceforge.net/DTD/sodipodi-0.dtd"
   xmlns:inkscape="http://www.inkscape.org/namespaces/inkscape"
   inkscape:version="1.0 (6e3e5246a0, 2020-05-07)"
   sodipodi:docname="run.svg"
   xml:space="preserve"
   viewBox="0 0 332.30157 335.42768"
   height="335.42767"
   width="332.30157"
   y="0px"
   x="0px"
   id="Capa_1"
   version="1.1"><metadata
   id="metadata152"><rdf:RDF><cc:Work
       rdf:about=""><dc:format>image/svg+xml</dc:format><dc:type
         rdf:resource="http://purl.org/dc/dcmitype/StillImage" /><dc:title></dc:title></cc:Work></rdf:RDF></metadata><defs
   id="defs150" /><sodipodi:namedview
   inkscape:current-layer="g158"
   inkscape:window-maximized="1"
   inkscape:window-y="26"
   inkscape:window-x="0"
   inkscape:cy="165.28002"
   inkscape:cx="41.981803"
   inkscape:zoom="1.4657346"
   inkscape:snap-midpoints="true"
   inkscape:snap-smooth-nodes="true"
   inkscape:snap-intersection-paths="true"
   inkscape:object-paths="true"
   inkscape:snap-bbox-edge-midpoints="true"
   inkscape:bbox-nodes="true"
   inkscape:bbox-paths="true"
   inkscape:snap-object-midpoints="true"
   inkscape:snap-bbox-midpoints="true"
   inkscape:snap-bbox="true"
   inkscape:snap-center="true"
   showgrid="false"
   id="namedview148"
   inkscape:window-height="1023"
   inkscape:window-width="1920"
   inkscape:pageshadow="2"
   inkscape:pageopacity="0"
   guidetolerance="10"
   gridtolerance="10"
   objecttolerance="10"
   borderopacity="1"
   bordercolor="#666666"
   pagecolor="#ffffff" />
<g
   transform="translate(-85.599777,-78.624978)"
   id="g115">
	<g
   id="_x33_6_24_">
		<g
   id="g112"><g
   style="fill:#1e2668;fill-opacity:1"
   transform="translate(-69.908568,2.4339781)"
   id="g158"><path
     style="fill:#1e2668;fill-opacity:1"
     d="m 385.729,154.418 c 21.6,0 39.111,-17.513 39.111,-39.114 0,-21.601 -17.512,-39.113 -39.111,-39.113 -21.605,0 -39.119,17.513 -39.119,39.113 -0.001,21.601 17.513,39.114 39.119,39.114 z"
     id="path108" /><path
     style="fill:#1e2668;fill-opacity:1"
     d="m 450.066,143.155 c -22.459,31.459 -52.533,35.102 -84.895,15.89 -2.203,-1.306 -11.977,-6.691 -14.141,-7.977 -52.061,-30.906 -104.061,-18.786 -138.934,30.05 -14.819,20.771 19.455,40.459 34.108,19.93 18.018,-25.232 40.929,-32.533 65.986,-24.541 -12.83,22.27 -24.047,44.405 -39.875,75.853 -15.832,31.448 -50.787,56.562 -84.374,36.92 -24.235,-14.165 -46.09,20.651 -21.928,34.772 45.854,26.799 99.619,10.343 127.066,-24.493 0.952,0.509 1.958,0.968 3.062,1.354 22.422,7.812 51.814,28.61 60.77,35.981 8.953,7.371 24.336,44.921 33.471,63.788 11.082,22.893 46.871,6.219 35.748,-16.771 -10.355,-21.406 -27.736,-64.129 -41.293,-74.938 -10.875,-8.669 -31.988,-24.803 -49.895,-33.956 12.115,-23.466 24.729,-46.679 38.008,-69.491 42.328,12.969 82.561,-2.308 111.215,-42.446 14.831,-20.768 -19.435,-40.456 -34.099,-19.925 z"
     id="path110" /></g>
			
			
			
			
			
			
		</g>
	</g>
</g>
<g
   transform="translate(-85.599777,-78.624978)"
   id="g117">
</g>
<g
   transform="translate(-85.599777,-78.624978)"
   id="g119">
</g>
<g
   transform="translate(-85.599777,-78.624978)"
   id="g121">
</g>
<g
   transform="translate(-85.599777,-78.624978)"
   id="g123">
</g>
<g
   transform="translate(-85.599777,-78.624978)"
   id="g125">
</g>
<g
   transform="translate(-85.599777,-78.624978)"
   id="g127">
</g>
<g
   transform="translate(-85.599777,-78.624978)"
   id="g129">
</g>
<g
   transform="translate(-85.599777,-78.624978)"
   id="g131">
</g>
<g
   transform="translate(-85.599777,-78.624978)"
   id="g133">
</g>
<g
   transform="translate(-85.599777,-78.624978)"
   id="g135">
</g>
<g
   transform="translate(-85.599777,-78.624978)"
   id="g137">
</g>
<g
   transform="translate(-85.599777,-78.624978)"
   id="g139">
</g>
<g
   transform="translate(-85.599777,-78.624978)"
   id="g141">
</g>
<g
   transform="translate(-85.599777,-78.624978)"
   id="g143">
</g>
<g
   transform="translate(-85.599777,-78.624978)"
   id="g145">
</g>
</svg>
